<?xml version="1.0" encoding="UTF-8" standalone="no"?>
<!DOCTYPE svg PUBLIC "-//W3C//DTD SVG 1.0//EN" "http://www.w3.org/TR/2001/PR-SVG-20010719/DTD/svg10.dtd">
<svg width="12cm" height="8cm" viewBox="9 8 223 143" xmlns="http://www.w3.org/2000/svg" xmlns:xlink="http://www.w3.org/1999/xlink">
  <g>
    <g>
      <rect style="fill: #ffffff" x="170" y="10" width="60" height="30"/>
      <rect style="fill: none; fill-opacity:0; stroke-width: 2; stroke: #000000" x="170" y="10" width="60" height="30"/>
    </g>
    <text font-size="12.8" style="fill: #000000;text-anchor:start;font-family:sans-serif;font-style:normal;font-weight:normal" x="180" y="30">
      <tspan x="180" y="30">master</tspan>
    </text>
  </g>
  <g>
    <g>
      <ellipse style="fill: #ffffff" cx="24.775" cy="24.775" rx="14.775" ry="14.775"/>
      <ellipse style="fill: none; fill-opacity:0; stroke-width: 2; stroke: #000000" cx="24.775" cy="24.775" rx="14.775" ry="14.775"/>
      <ellipse style="fill: none; fill-opacity:0; stroke-width: 2; stroke: #000000" cx="24.775" cy="24.775" rx="14.775" ry="14.775"/>
    </g>
    <text font-size="16.9333" style="fill: #000000;text-anchor:start;font-family:sans-serif;font-style:normal;font-weight:normal" x="19.525" y="31.5">
      <tspan x="19.525" y="31.5">A</tspan>
    </text>
  </g>
  <g>
    <g>
      <ellipse style="fill: #ffffff" cx="74.775" cy="24.775" rx="14.775" ry="14.775"/>
      <ellipse style="fill: none; fill-opacity:0; stroke-width: 2; stroke: #000000" cx="74.775" cy="24.775" rx="14.775" ry="14.775"/>
      <ellipse style="fill: none; fill-opacity:0; stroke-width: 2; stroke: #000000" cx="74.775" cy="24.775" rx="14.775" ry="14.775"/>
    </g>
    <text font-size="16.9333" style="fill: #000000;text-anchor:start;font-family:sans-serif;font-style:normal;font-weight:normal" x="69.525" y="31.5">
      <tspan x="69.525" y="31.5">B</tspan>
    </text>
  </g>
  <g>
    <g>
      <ellipse style="fill: #ffffff" cx="124.775" cy="24.775" rx="14.775" ry="14.775"/>
      <ellipse style="fill: none; fill-opacity:0; stroke-width: 2; stroke: #000000" cx="124.775" cy="24.775" rx="14.775" ry="14.775"/>
      <ellipse style="fill: none; fill-opacity:0; stroke-width: 2; stroke: #000000" cx="124.775" cy="24.775" rx="14.775" ry="14.775"/>
    </g>
    <text font-size="16.9333" style="fill: #000000;text-anchor:start;font-family:sans-serif;font-style:normal;font-weight:normal" x="119.525" y="31.5">
      <tspan x="119.525" y="31.5">C</tspan>
    </text>
  </g>
  <g>
    <line style="fill: none; fill-opacity:0; stroke-width: 2; stroke: #000000" x1="110" y1="24.775" x2="94.7861" y2="24.775"/>
    <polygon style="fill: #000000" points="91.7861,24.775 95.7861,22.775 94.7861,24.775 95.7861,26.775 "/>
    <polygon style="fill: none; fill-opacity:0; stroke-width: 2; stroke: #000000" points="91.7861,24.775 95.7861,22.775 94.7861,24.775 95.7861,26.775 "/>
  </g>
  <g>
    <line style="fill: none; fill-opacity:0; stroke-width: 2; stroke: #000000" x1="60" y1="24.775" x2="44.7861" y2="24.775"/>
    <polygon style="fill: #000000" points="41.7861,24.775 45.7861,22.775 44.7861,24.775 45.7861,26.775 "/>
    <polygon style="fill: none; fill-opacity:0; stroke-width: 2; stroke: #000000" points="41.7861,24.775 45.7861,22.775 44.7861,24.775 45.7861,26.775 "/>
  </g>
  <g>
    <line style="fill: none; fill-opacity:0; stroke-width: 2; stroke: #000000" x1="224.312" y1="146.375" x2="211.103" y2="146.375"/>
    <polygon style="fill: #000000" points="208.103,146.375 212.103,144.375 211.103,146.375 212.103,148.375 "/>
    <polygon style="fill: none; fill-opacity:0; stroke-width: 2; stroke: #000000" points="208.103,146.375 212.103,144.375 211.103,146.375 212.103,148.375 "/>
  </g>
  <g>
    <line style="fill: none; fill-opacity:0; stroke-width: 2; stroke: #000000" x1="170" y1="25" x2="144.786" y2="24.8137"/>
    <polygon style="fill: #000000" points="141.786,24.7915 145.801,22.8211 144.786,24.8137 145.771,26.821 "/>
    <polygon style="fill: none; fill-opacity:0; stroke-width: 2; stroke: #000000" points="141.786,24.7915 145.801,22.8211 144.786,24.8137 145.771,26.821 "/>
  </g>
  <g>
    <polygon style="fill: #ffffff" points="101.25,64 101.25,86.5 90,86.5 112.5,109 135,86.5 123.75,86.5 123.75,64 "/>
    <polygon style="fill: none; fill-opacity:0; stroke-width: 2; stroke: #000000" points="101.25,64 101.25,86.5 90,86.5 112.5,109 135,86.5 123.75,86.5 123.75,64 "/>
    <polygon style="fill: none; fill-opacity:0; stroke-width: 2; stroke: #000000" points="101.25,64 101.25,86.5 90,86.5 112.5,109 135,86.5 123.75,86.5 123.75,64 "/>
  </g>
  <text font-size="12.8" style="fill: #000000;text-anchor:start;font-family:sans-serif;font-style:normal;font-weight:normal" x="93.7" y="60.758">
    <tspan x="93.7" y="60.758">amend</tspan>
  </text>
  <g>
    <g>
      <rect style="fill: #ffffff" x="170" y="120" width="60" height="30"/>
      <rect style="fill: none; fill-opacity:0; stroke-width: 2; stroke: #000000" x="170" y="120" width="60" height="30"/>
    </g>
    <text font-size="12.8" style="fill: #000000;text-anchor:start;font-family:sans-serif;font-style:normal;font-weight:normal" x="180" y="140">
      <tspan x="180" y="140">master</tspan>
    </text>
  </g>
  <g>
    <g>
      <ellipse style="fill: #ffffff" cx="24.775" cy="134.775" rx="14.775" ry="14.775"/>
      <ellipse style="fill: none; fill-opacity:0; stroke-width: 2; stroke: #000000" cx="24.775" cy="134.775" rx="14.775" ry="14.775"/>
      <ellipse style="fill: none; fill-opacity:0; stroke-width: 2; stroke: #000000" cx="24.775" cy="134.775" rx="14.775" ry="14.775"/>
    </g>
    <text font-size="16.9333" style="fill: #000000;text-anchor:start;font-family:sans-serif;font-style:normal;font-weight:normal" x="19.525" y="141.5">
      <tspan x="19.525" y="141.5">A</tspan>
    </text>
  </g>
  <g>
    <g>
      <ellipse style="fill: #ffffff" cx="74.775" cy="134.775" rx="14.775" ry="14.775"/>
      <ellipse style="fill: none; fill-opacity:0; stroke-width: 2; stroke: #000000" cx="74.775" cy="134.775" rx="14.775" ry="14.775"/>
      <ellipse style="fill: none; fill-opacity:0; stroke-width: 2; stroke: #000000" cx="74.775" cy="134.775" rx="14.775" ry="14.775"/>
    </g>
    <text font-size="16.9333" style="fill: #000000;text-anchor:start;font-family:sans-serif;font-style:normal;font-weight:normal" x="69.525" y="141.5">
      <tspan x="69.525" y="141.5">B</tspan>
    </text>
  </g>
  <g>
    <line style="fill: none; fill-opacity:0; stroke-width: 2; stroke: #000000" x1="110" y1="134.775" x2="94.7861" y2="134.775"/>
    <polygon style="fill: #000000" points="91.7861,134.775 95.7861,132.775 94.7861,134.775 95.7861,136.775 "/>
    <polygon style="fill: none; fill-opacity:0; stroke-width: 2; stroke: #000000" points="91.7861,134.775 95.7861,132.775 94.7861,134.775 95.7861,136.775 "/>
  </g>
  <g>
    <line style="fill: none; fill-opacity:0; stroke-width: 2; stroke: #000000" x1="60" y1="134.775" x2="44.7861" y2="134.775"/>
    <polygon style="fill: #000000" points="41.7861,134.775 45.7861,132.775 44.7861,134.775 45.7861,136.775 "/>
    <polygon style="fill: none; fill-opacity:0; stroke-width: 2; stroke: #000000" points="41.7861,134.775 45.7861,132.775 44.7861,134.775 45.7861,136.775 "/>
  </g>
  <g>
    <line style="fill: none; fill-opacity:0; stroke-width: 2; stroke: #000000" x1="170" y1="135" x2="144.786" y2="134.814"/>
    <polygon style="fill: #000000" points="141.786,134.792 145.801,132.821 144.786,134.814 145.771,136.821 "/>
    <polygon style="fill: none; fill-opacity:0; stroke-width: 2; stroke: #000000" points="141.786,134.792 145.801,132.821 144.786,134.814 145.771,136.821 "/>
  </g>
  <g>
    <g>
      <ellipse style="fill: #ffffff" cx="124.775" cy="134.775" rx="14.775" ry="14.775"/>
      <ellipse style="fill: none; fill-opacity:0; stroke-width: 2; stroke: #000000" cx="124.775" cy="134.775" rx="14.775" ry="14.775"/>
      <ellipse style="fill: none; fill-opacity:0; stroke-width: 2; stroke: #000000" cx="124.775" cy="134.775" rx="14.775" ry="14.775"/>
    </g>
    <text font-size="16.9333" style="fill: #000000;text-anchor:start;font-family:sans-serif;font-style:normal;font-weight:normal" x="117.875" y="141.244">
      <tspan x="117.875" y="141.244">C'</tspan>
    </text>
  </g>
</svg>
