<?xml version="1.0" encoding="UTF-8" standalone="no"?>
<!DOCTYPE svg PUBLIC "-//W3C//DTD SVG 1.0//EN" "http://www.w3.org/TR/2001/PR-SVG-20010719/DTD/svg10.dtd">
<svg width="24cm" height="10cm" viewBox="9 8 473 193" xmlns="http://www.w3.org/2000/svg" xmlns:xlink="http://www.w3.org/1999/xlink">
  <g>
    <g>
      <ellipse style="fill: #ffffff" cx="25" cy="105" rx="15" ry="15"/>
      <ellipse style="fill: none; fill-opacity:0; stroke-width: 2; stroke: #000000" cx="25" cy="105" rx="15" ry="15"/>
      <ellipse style="fill: none; fill-opacity:0; stroke-width: 2; stroke: #000000" cx="25" cy="105" rx="15" ry="15"/>
    </g>
    <text font-size="20.3197" style="fill: #000000;text-anchor:start;font-family:sans-serif;font-style:normal;font-weight:normal" x="18.75" y="113.05">
      <tspan x="18.75" y="113.05">A</tspan>
    </text>
  </g>
  <g>
    <g>
      <ellipse style="fill: #ffffff" cx="75" cy="105" rx="15" ry="15"/>
      <ellipse style="fill: none; fill-opacity:0; stroke-width: 2; stroke: #000000" cx="75" cy="105" rx="15" ry="15"/>
      <ellipse style="fill: none; fill-opacity:0; stroke-width: 2; stroke: #000000" cx="75" cy="105" rx="15" ry="15"/>
    </g>
    <text font-size="20.3197" style="fill: #000000;text-anchor:start;font-family:sans-serif;font-style:normal;font-weight:normal" x="68.75" y="113.05">
      <tspan x="68.75" y="113.05">B</tspan>
    </text>
  </g>
  <g>
    <g>
      <ellipse style="fill: #ffffff" cx="175" cy="55" rx="15" ry="15"/>
      <ellipse style="fill: none; fill-opacity:0; stroke-width: 2; stroke: #000000" cx="175" cy="55" rx="15" ry="15"/>
      <ellipse style="fill: none; fill-opacity:0; stroke-width: 2; stroke: #000000" cx="175" cy="55" rx="15" ry="15"/>
    </g>
    <text font-size="20.3197" style="fill: #000000;text-anchor:start;font-family:sans-serif;font-style:normal;font-weight:normal" x="168.225" y="62.7438">
      <tspan x="168.225" y="62.7438">G</tspan>
    </text>
  </g>
  <g>
    <g>
      <ellipse style="fill: #ffffff" cx="265" cy="105" rx="15" ry="15"/>
      <ellipse style="fill: none; fill-opacity:0; stroke-width: 2; stroke: #000000" cx="265" cy="105" rx="15" ry="15"/>
      <ellipse style="fill: none; fill-opacity:0; stroke-width: 2; stroke: #000000" cx="265" cy="105" rx="15" ry="15"/>
    </g>
    <text font-size="20.3197" style="fill: #000000;text-anchor:start;font-family:sans-serif;font-style:normal;font-weight:normal" x="261.225" y="112.744">
      <tspan x="261.225" y="112.744">I</tspan>
    </text>
  </g>
  <g>
    <g>
      <ellipse style="fill: #ffffff" cx="125" cy="105" rx="15" ry="15"/>
      <ellipse style="fill: none; fill-opacity:0; stroke-width: 2; stroke: #000000" cx="125" cy="105" rx="15" ry="15"/>
      <ellipse style="fill: none; fill-opacity:0; stroke-width: 2; stroke: #000000" cx="125" cy="105" rx="15" ry="15"/>
    </g>
    <text font-size="20.3197" style="fill: #000000;text-anchor:start;font-family:sans-serif;font-style:normal;font-weight:normal" x="118.75" y="113.05">
      <tspan x="118.75" y="113.05">D</tspan>
    </text>
  </g>
  <g>
    <g>
      <ellipse style="fill: #ffffff" cx="195" cy="105" rx="15" ry="15"/>
      <ellipse style="fill: none; fill-opacity:0; stroke-width: 2; stroke: #000000" cx="195" cy="105" rx="15" ry="15"/>
      <ellipse style="fill: none; fill-opacity:0; stroke-width: 2; stroke: #000000" cx="195" cy="105" rx="15" ry="15"/>
    </g>
    <text font-size="20.3197" style="fill: #000000;text-anchor:start;font-family:sans-serif;font-style:normal;font-weight:normal" x="188.75" y="113.05">
      <tspan x="188.75" y="113.05">F</tspan>
    </text>
  </g>
  <g>
    <g>
      <ellipse style="fill: #ffffff" cx="125" cy="155" rx="15" ry="15"/>
      <ellipse style="fill: none; fill-opacity:0; stroke-width: 2; stroke: #000000" cx="125" cy="155" rx="15" ry="15"/>
      <ellipse style="fill: none; fill-opacity:0; stroke-width: 2; stroke: #000000" cx="125" cy="155" rx="15" ry="15"/>
    </g>
    <text font-size="20.3197" style="fill: #000000;text-anchor:start;font-family:sans-serif;font-style:normal;font-weight:normal" x="118.75" y="163.05">
      <tspan x="118.75" y="163.05">C</tspan>
    </text>
  </g>
  <g>
    <g>
      <ellipse style="fill: #ffffff" cx="195" cy="155" rx="15" ry="15"/>
      <ellipse style="fill: none; fill-opacity:0; stroke-width: 2; stroke: #000000" cx="195" cy="155" rx="15" ry="15"/>
      <ellipse style="fill: none; fill-opacity:0; stroke-width: 2; stroke: #000000" cx="195" cy="155" rx="15" ry="15"/>
    </g>
    <text font-size="20.3197" style="fill: #000000;text-anchor:start;font-family:sans-serif;font-style:normal;font-weight:normal" x="188.75" y="163.05">
      <tspan x="188.75" y="163.05">E</tspan>
    </text>
  </g>
  <g>
    <g>
      <ellipse style="fill: #ffffff" cx="265" cy="155" rx="15" ry="15"/>
      <ellipse style="fill: none; fill-opacity:0; stroke-width: 2; stroke: #000000" cx="265" cy="155" rx="15" ry="15"/>
      <ellipse style="fill: none; fill-opacity:0; stroke-width: 2; stroke: #000000" cx="265" cy="155" rx="15" ry="15"/>
    </g>
    <text font-size="20.3197" style="fill: #000000;text-anchor:start;font-family:sans-serif;font-style:normal;font-weight:normal" x="260.775" y="162.744">
      <tspan x="260.775" y="162.744">J</tspan>
    </text>
  </g>
  <g>
    <g>
      <ellipse style="fill: #ffffff" cx="315" cy="105" rx="15" ry="15"/>
      <ellipse style="fill: none; fill-opacity:0; stroke-width: 2; stroke: #000000" cx="315" cy="105" rx="15" ry="15"/>
      <ellipse style="fill: none; fill-opacity:0; stroke-width: 2; stroke: #000000" cx="315" cy="105" rx="15" ry="15"/>
    </g>
    <text font-size="20.3197" style="fill: #000000;text-anchor:start;font-family:sans-serif;font-style:normal;font-weight:normal" x="308.75" y="113.05">
      <tspan x="308.75" y="113.05">K</tspan>
    </text>
  </g>
  <g>
    <g>
      <ellipse style="fill: #ffffff" cx="365" cy="105" rx="15" ry="15"/>
      <ellipse style="fill: none; fill-opacity:0; stroke-width: 2; stroke: #000000" cx="365" cy="105" rx="15" ry="15"/>
      <ellipse style="fill: none; fill-opacity:0; stroke-width: 2; stroke: #000000" cx="365" cy="105" rx="15" ry="15"/>
    </g>
    <text font-size="20.3197" style="fill: #000000;text-anchor:start;font-family:sans-serif;font-style:normal;font-weight:normal" x="358.75" y="113.05">
      <tspan x="358.75" y="113.05">L</tspan>
    </text>
  </g>
  <g>
    <line style="fill: none; fill-opacity:0; stroke-width: 2; stroke: #000000" x1="60" y1="105" x2="45.2361" y2="105"/>
    <polygon style="fill: #000000" points="42.2361,105 46.2361,103 45.2361,105 46.2361,107 "/>
    <polygon style="fill: none; fill-opacity:0; stroke-width: 2; stroke: #000000" points="42.2361,105 46.2361,103 45.2361,105 46.2361,107 "/>
  </g>
  <g>
    <line style="fill: none; fill-opacity:0; stroke-width: 2; stroke: #000000" x1="110" y1="105" x2="95.2361" y2="105"/>
    <polygon style="fill: #000000" points="92.2361,105 96.2361,103 95.2361,105 96.2361,107 "/>
    <polygon style="fill: none; fill-opacity:0; stroke-width: 2; stroke: #000000" points="92.2361,105 96.2361,103 95.2361,105 96.2361,107 "/>
  </g>
  <g>
    <line style="fill: none; fill-opacity:0; stroke-width: 2; stroke: #000000" x1="113.69" y1="143.69" x2="90.0123" y2="120.012"/>
    <polygon style="fill: #000000" points="87.891,117.891 92.1336,119.305 90.0123,120.012 89.3052,122.134 "/>
    <polygon style="fill: none; fill-opacity:0; stroke-width: 2; stroke: #000000" points="87.891,117.891 92.1336,119.305 90.0123,120.012 89.3052,122.134 "/>
  </g>
  <g>
    <line style="fill: none; fill-opacity:0; stroke-width: 2; stroke: #000000" x1="160" y1="55" x2="137.171" y2="87.6123"/>
    <polygon style="fill: #000000" points="135.451,90.07 136.106,85.6461 137.171,87.6123 139.383,87.94 "/>
    <polygon style="fill: none; fill-opacity:0; stroke-width: 2; stroke: #000000" points="135.451,90.07 136.106,85.6461 137.171,87.6123 139.383,87.94 "/>
  </g>
  <g>
    <line style="fill: none; fill-opacity:0; stroke-width: 2; stroke: #000000" x1="180" y1="155" x2="145.236" y2="155"/>
    <polygon style="fill: #000000" points="142.236,155 146.236,153 145.236,155 146.236,157 "/>
    <polygon style="fill: none; fill-opacity:0; stroke-width: 2; stroke: #000000" points="142.236,155 146.236,153 145.236,155 146.236,157 "/>
  </g>
  <g>
    <line style="fill: none; fill-opacity:0; stroke-width: 2; stroke: #000000" x1="180" y1="105" x2="145.236" y2="105"/>
    <polygon style="fill: #000000" points="142.236,105 146.236,103 145.236,105 146.236,107 "/>
    <polygon style="fill: none; fill-opacity:0; stroke-width: 2; stroke: #000000" points="142.236,105 146.236,103 145.236,105 146.236,107 "/>
  </g>
  <g>
    <line style="fill: none; fill-opacity:0; stroke-width: 2; stroke: #000000" x1="210" y1="55" x2="195.236" y2="55"/>
    <polygon style="fill: #000000" points="192.236,55 196.236,53 195.236,55 196.236,57 "/>
    <polygon style="fill: none; fill-opacity:0; stroke-width: 2; stroke: #000000" points="192.236,55 196.236,53 195.236,55 196.236,57 "/>
  </g>
  <g>
    <line style="fill: none; fill-opacity:0; stroke-width: 2; stroke: #000000" x1="265" y1="90" x2="243.043" y2="59.2608"/>
    <polygon style="fill: #000000" points="241.3,56.8196 245.252,58.912 243.043,59.2608 241.997,61.237 "/>
    <polygon style="fill: none; fill-opacity:0; stroke-width: 2; stroke: #000000" points="241.3,56.8196 245.252,58.912 243.043,59.2608 241.997,61.237 "/>
  </g>
  <g>
    <line style="fill: none; fill-opacity:0; stroke-width: 2; stroke: #000000" x1="250" y1="105" x2="215.236" y2="105"/>
    <polygon style="fill: #000000" points="212.236,105 216.236,103 215.236,105 216.236,107 "/>
    <polygon style="fill: none; fill-opacity:0; stroke-width: 2; stroke: #000000" points="212.236,105 216.236,103 215.236,105 216.236,107 "/>
  </g>
  <g>
    <line style="fill: none; fill-opacity:0; stroke-width: 2; stroke: #000000" x1="250" y1="155" x2="215.236" y2="155"/>
    <polygon style="fill: #000000" points="212.236,155 216.236,153 215.236,155 216.236,157 "/>
    <polygon style="fill: none; fill-opacity:0; stroke-width: 2; stroke: #000000" points="212.236,155 216.236,153 215.236,155 216.236,157 "/>
  </g>
  <g>
    <line style="fill: none; fill-opacity:0; stroke-width: 2; stroke: #000000" x1="303.69" y1="116.31" x2="280.012" y2="139.988"/>
    <polygon style="fill: #000000" points="277.891,142.109 279.305,137.866 280.012,139.988 282.134,140.695 "/>
    <polygon style="fill: none; fill-opacity:0; stroke-width: 2; stroke: #000000" points="277.891,142.109 279.305,137.866 280.012,139.988 282.134,140.695 "/>
  </g>
  <g>
    <line style="fill: none; fill-opacity:0; stroke-width: 2; stroke: #000000" x1="300" y1="105" x2="285.236" y2="105"/>
    <polygon style="fill: #000000" points="282.236,105 286.236,103 285.236,105 286.236,107 "/>
    <polygon style="fill: none; fill-opacity:0; stroke-width: 2; stroke: #000000" points="282.236,105 286.236,103 285.236,105 286.236,107 "/>
  </g>
  <g>
    <line style="fill: none; fill-opacity:0; stroke-width: 2; stroke: #000000" x1="350" y1="105" x2="335.236" y2="105"/>
    <polygon style="fill: #000000" points="332.236,105 336.236,103 335.236,105 336.236,107 "/>
    <polygon style="fill: none; fill-opacity:0; stroke-width: 2; stroke: #000000" points="332.236,105 336.236,103 335.236,105 336.236,107 "/>
  </g>
  <g>
    <g>
      <ellipse style="fill: #ffffff" cx="225" cy="55" rx="15" ry="15"/>
      <ellipse style="fill: none; fill-opacity:0; stroke-width: 2; stroke: #000000" cx="225" cy="55" rx="15" ry="15"/>
      <ellipse style="fill: none; fill-opacity:0; stroke-width: 2; stroke: #000000" cx="225" cy="55" rx="15" ry="15"/>
    </g>
    <text font-size="20.3197" style="fill: #000000;text-anchor:start;font-family:sans-serif;font-style:normal;font-weight:normal" x="218.15" y="63.05">
      <tspan x="218.15" y="63.05">H</tspan>
    </text>
  </g>
  <g>
    <g>
      <ellipse style="fill: #ffffff" cx="335" cy="155" rx="15" ry="15"/>
      <ellipse style="fill: none; fill-opacity:0; stroke-width: 2; stroke: #000000" cx="335" cy="155" rx="15" ry="15"/>
      <ellipse style="fill: none; fill-opacity:0; stroke-width: 2; stroke: #000000" cx="335" cy="155" rx="15" ry="15"/>
    </g>
    <text font-size="20.3197" style="fill: #000000;text-anchor:start;font-family:sans-serif;font-style:normal;font-weight:normal" x="327.175" y="162.744">
      <tspan x="327.175" y="162.744">M</tspan>
    </text>
  </g>
  <g>
    <line style="fill: none; fill-opacity:0; stroke-width: 2; stroke: #000000" x1="320" y1="155" x2="285.236" y2="155"/>
    <polygon style="fill: #000000" points="282.236,155 286.236,153 285.236,155 286.236,157 "/>
    <polygon style="fill: none; fill-opacity:0; stroke-width: 2; stroke: #000000" points="282.236,155 286.236,153 285.236,155 286.236,157 "/>
  </g>
  <g>
    <g>
      <rect style="fill: #ffffff" x="420" y="90" width="60" height="30"/>
      <rect style="fill: none; fill-opacity:0; stroke-width: 2; stroke: #000000" x="420" y="90" width="60" height="30"/>
    </g>
    <text font-size="12.8" style="fill: #000000;text-anchor:start;font-family:sans-serif;font-style:normal;font-weight:normal" x="430" y="110">
      <tspan x="430" y="110">master</tspan>
    </text>
  </g>
  <g>
    <g>
      <rect style="fill: #ffffff" x="290" y="10" width="70" height="30"/>
      <rect style="fill: none; fill-opacity:0; stroke-width: 2; stroke: #000000" x="290" y="10" width="70" height="30"/>
    </g>
    <text font-size="12.8" style="fill: #000000;text-anchor:start;font-family:sans-serif;font-style:normal;font-weight:normal" x="298.975" y="29.8819">
      <tspan x="298.975" y="29.8819">feature A</tspan>
    </text>
  </g>
  <g>
    <g>
      <rect style="fill: #ffffff" x="400" y="170" width="70" height="30"/>
      <rect style="fill: none; fill-opacity:0; stroke-width: 2; stroke: #000000" x="400" y="170" width="70" height="30"/>
    </g>
    <text font-size="12.8" style="fill: #000000;text-anchor:start;font-family:sans-serif;font-style:normal;font-weight:normal" x="409.05" y="189.882">
      <tspan x="409.05" y="189.882">feature B</tspan>
    </text>
  </g>
  <g>
    <line style="fill: none; fill-opacity:0; stroke-width: 2; stroke: #000000" x1="289.001" y1="35.7996" x2="245.298" y2="48.9105"/>
    <polygon style="fill: #000000" points="242.425,49.7725 245.682,46.7075 245.298,48.9105 246.831,50.5388 "/>
    <polygon style="fill: none; fill-opacity:0; stroke-width: 2; stroke: #000000" points="242.425,49.7725 245.682,46.7075 245.298,48.9105 246.831,50.5388 "/>
  </g>
  <g>
    <line style="fill: none; fill-opacity:0; stroke-width: 2; stroke: #000000" x1="420" y1="105" x2="385.236" y2="105"/>
    <polygon style="fill: #000000" points="382.236,105 386.236,103 385.236,105 386.236,107 "/>
    <polygon style="fill: none; fill-opacity:0; stroke-width: 2; stroke: #000000" points="382.236,105 386.236,103 385.236,105 386.236,107 "/>
  </g>
  <g>
    <line style="fill: none; fill-opacity:0; stroke-width: 2; stroke: #000000" x1="399.001" y1="174.2" x2="355.298" y2="161.09"/>
    <polygon style="fill: #000000" points="352.425,160.227 356.831,159.461 355.298,161.09 355.682,163.293 "/>
    <polygon style="fill: none; fill-opacity:0; stroke-width: 2; stroke: #000000" points="352.425,160.227 356.831,159.461 355.298,161.09 355.682,163.293 "/>
  </g>
</svg>
