<?xml version="1.0" encoding="UTF-8" standalone="no"?>
<!DOCTYPE svg PUBLIC "-//W3C//DTD SVG 1.0//EN" "http://www.w3.org/TR/2001/PR-SVG-20010719/DTD/svg10.dtd">
<svg width="21cm" height="5cm" viewBox="8 8 413 83" xmlns="http://www.w3.org/2000/svg" xmlns:xlink="http://www.w3.org/1999/xlink">
  <g>
    <g>
      <rect style="fill: #ffffff" x="360" y="60" width="60" height="30"/>
      <rect style="fill: none; fill-opacity:0; stroke-width: 2; stroke: #000000" x="360" y="60" width="60" height="30"/>
    </g>
    <text font-size="12.8" style="fill: #000000;text-anchor:start;font-family:sans-serif;font-style:normal;font-weight:normal" x="370" y="80">
      <tspan x="370" y="80">master</tspan>
    </text>
  </g>
  <g>
    <g>
      <rect style="fill: #ffffff" x="360" y="10" width="60" height="30"/>
      <rect style="fill: none; fill-opacity:0; stroke-width: 2; stroke: #000000" x="360" y="10" width="60" height="30"/>
    </g>
    <text font-size="12.8" style="fill: #000000;text-anchor:start;font-family:sans-serif;font-style:normal;font-weight:normal" x="370" y="30">
      <tspan x="370" y="30">feature</tspan>
    </text>
  </g>
  <g>
    <g>
      <ellipse style="fill: #ffffff" cx="24.775" cy="74.775" rx="14.775" ry="14.775"/>
      <ellipse style="fill: none; fill-opacity:0; stroke-width: 2; stroke: #000000" cx="24.775" cy="74.775" rx="14.775" ry="14.775"/>
      <ellipse style="fill: none; fill-opacity:0; stroke-width: 2; stroke: #000000" cx="24.775" cy="74.775" rx="14.775" ry="14.775"/>
    </g>
    <text font-size="16.9333" style="fill: #000000;text-anchor:start;font-family:sans-serif;font-style:normal;font-weight:normal" x="19.525" y="81.5">
      <tspan x="19.525" y="81.5">A</tspan>
    </text>
  </g>
  <g>
    <g>
      <ellipse style="fill: #ffffff" cx="74.775" cy="24.775" rx="14.775" ry="14.775"/>
      <ellipse style="fill: none; fill-opacity:0; stroke-width: 2; stroke: #000000" cx="74.775" cy="24.775" rx="14.775" ry="14.775"/>
      <ellipse style="fill: none; fill-opacity:0; stroke-width: 2; stroke: #000000" cx="74.775" cy="24.775" rx="14.775" ry="14.775"/>
    </g>
    <text font-size="16.9333" style="fill: #000000;text-anchor:start;font-family:sans-serif;font-style:normal;font-weight:normal" x="69.525" y="31.5">
      <tspan x="69.525" y="31.5">D</tspan>
    </text>
  </g>
  <g>
    <g>
      <ellipse style="fill: #ffffff" cx="124.775" cy="24.775" rx="14.775" ry="14.775"/>
      <ellipse style="fill: none; fill-opacity:0; stroke-width: 2; stroke: #000000" cx="124.775" cy="24.775" rx="14.775" ry="14.775"/>
      <ellipse style="fill: none; fill-opacity:0; stroke-width: 2; stroke: #000000" cx="124.775" cy="24.775" rx="14.775" ry="14.775"/>
    </g>
    <text font-size="16.9333" style="fill: #000000;text-anchor:start;font-family:sans-serif;font-style:normal;font-weight:normal" x="119.525" y="31.5">
      <tspan x="119.525" y="31.5">E</tspan>
    </text>
  </g>
  <g>
    <g>
      <ellipse style="fill: #ffffff" cx="74.775" cy="74.775" rx="14.775" ry="14.775"/>
      <ellipse style="fill: none; fill-opacity:0; stroke-width: 2; stroke: #000000" cx="74.775" cy="74.775" rx="14.775" ry="14.775"/>
      <ellipse style="fill: none; fill-opacity:0; stroke-width: 2; stroke: #000000" cx="74.775" cy="74.775" rx="14.775" ry="14.775"/>
    </g>
    <text font-size="16.9333" style="fill: #000000;text-anchor:start;font-family:sans-serif;font-style:normal;font-weight:normal" x="69.525" y="81.5">
      <tspan x="69.525" y="81.5">B</tspan>
    </text>
  </g>
  <g>
    <g>
      <ellipse style="fill: #ffffff" cx="124.775" cy="74.775" rx="14.775" ry="14.775"/>
      <ellipse style="fill: none; fill-opacity:0; stroke-width: 2; stroke: #000000" cx="124.775" cy="74.775" rx="14.775" ry="14.775"/>
      <ellipse style="fill: none; fill-opacity:0; stroke-width: 2; stroke: #000000" cx="124.775" cy="74.775" rx="14.775" ry="14.775"/>
    </g>
    <text font-size="16.9333" style="fill: #000000;text-anchor:start;font-family:sans-serif;font-style:normal;font-weight:normal" x="119.525" y="81.5">
      <tspan x="119.525" y="81.5">C</tspan>
    </text>
  </g>
  <g>
    <g>
      <ellipse style="fill: #ffffff" cx="174.775" cy="74.775" rx="14.775" ry="14.775"/>
      <ellipse style="fill: none; fill-opacity:0; stroke-width: 2; stroke: #000000" cx="174.775" cy="74.775" rx="14.775" ry="14.775"/>
      <ellipse style="fill: none; fill-opacity:0; stroke-width: 2; stroke: #000000" cx="174.775" cy="74.775" rx="14.775" ry="14.775"/>
    </g>
    <text font-size="16.9333" style="fill: #000000;text-anchor:start;font-family:sans-serif;font-style:normal;font-weight:normal" x="169.525" y="81.5">
      <tspan x="169.525" y="81.5">F</tspan>
    </text>
  </g>
  <g>
    <g>
      <ellipse style="fill: #ffffff" cx="224.775" cy="24.775" rx="14.775" ry="14.775"/>
      <ellipse style="fill: none; fill-opacity:0; stroke-width: 2; stroke: #000000" cx="224.775" cy="24.775" rx="14.775" ry="14.775"/>
      <ellipse style="fill: none; fill-opacity:0; stroke-width: 2; stroke: #000000" cx="224.775" cy="24.775" rx="14.775" ry="14.775"/>
    </g>
    <text font-size="16.9333" style="fill: #000000;text-anchor:start;font-family:sans-serif;font-style:normal;font-weight:normal" x="219.125" y="31.2444">
      <tspan x="219.125" y="31.2444">G</tspan>
    </text>
  </g>
  <g>
    <g>
      <ellipse style="fill: #ffffff" cx="274.775" cy="24.775" rx="14.775" ry="14.775"/>
      <ellipse style="fill: none; fill-opacity:0; stroke-width: 2; stroke: #000000" cx="274.775" cy="24.775" rx="14.775" ry="14.775"/>
      <ellipse style="fill: none; fill-opacity:0; stroke-width: 2; stroke: #000000" cx="274.775" cy="24.775" rx="14.775" ry="14.775"/>
    </g>
    <text font-size="16.9333" style="fill: #000000;text-anchor:start;font-family:sans-serif;font-style:normal;font-weight:normal" x="269.525" y="31.5">
      <tspan x="269.525" y="31.5">H</tspan>
    </text>
  </g>
  <g>
    <g>
      <ellipse style="fill: #00ff00" cx="324.775" cy="74.775" rx="14.775" ry="14.775"/>
      <ellipse style="fill: none; fill-opacity:0; stroke-width: 2; stroke: #000000" cx="324.775" cy="74.775" rx="14.775" ry="14.775"/>
      <ellipse style="fill: none; fill-opacity:0; stroke-width: 2; stroke: #000000" cx="324.775" cy="74.775" rx="14.775" ry="14.775"/>
    </g>
    <text font-size="16.9333" style="fill: #000000;text-anchor:start;font-family:sans-serif;font-style:normal;font-weight:normal" x="321.625" y="81.2444">
      <tspan x="321.625" y="81.2444">I</tspan>
    </text>
  </g>
  <g>
    <line style="fill: none; fill-opacity:0; stroke-width: 2; stroke: #000000" x1="60" y1="74.775" x2="44.7861" y2="74.775"/>
    <polygon style="fill: #000000" points="41.7861,74.775 45.7861,72.775 44.7861,74.775 45.7861,76.775 "/>
    <polygon style="fill: none; fill-opacity:0; stroke-width: 2; stroke: #000000" points="41.7861,74.775 45.7861,72.775 44.7861,74.775 45.7861,76.775 "/>
  </g>
  <g>
    <line style="fill: none; fill-opacity:0; stroke-width: 2; stroke: #000000" x1="63.63" y1="35.92" x2="39.6225" y2="59.9275"/>
    <polygon style="fill: #000000" points="37.5012,62.0488 38.9154,57.8062 39.6225,59.9275 41.7438,60.6346 "/>
    <polygon style="fill: none; fill-opacity:0; stroke-width: 2; stroke: #000000" points="37.5012,62.0488 38.9154,57.8062 39.6225,59.9275 41.7438,60.6346 "/>
  </g>
  <g>
    <line style="fill: none; fill-opacity:0; stroke-width: 2; stroke: #000000" x1="110" y1="74.775" x2="94.7861" y2="74.775"/>
    <polygon style="fill: #000000" points="91.7861,74.775 95.7861,72.775 94.7861,74.775 95.7861,76.775 "/>
    <polygon style="fill: none; fill-opacity:0; stroke-width: 2; stroke: #000000" points="91.7861,74.775 95.7861,72.775 94.7861,74.775 95.7861,76.775 "/>
  </g>
  <g>
    <line style="fill: none; fill-opacity:0; stroke-width: 2; stroke: #000000" x1="110" y1="24.775" x2="94.7861" y2="24.775"/>
    <polygon style="fill: #000000" points="91.7861,24.775 95.7861,22.775 94.7861,24.775 95.7861,26.775 "/>
    <polygon style="fill: none; fill-opacity:0; stroke-width: 2; stroke: #000000" points="91.7861,24.775 95.7861,22.775 94.7861,24.775 95.7861,26.775 "/>
  </g>
  <g>
    <line style="fill: none; fill-opacity:0; stroke-width: 2; stroke: #000000" x1="160" y1="74.775" x2="144.786" y2="74.775"/>
    <polygon style="fill: #000000" points="141.786,74.775 145.786,72.775 144.786,74.775 145.786,76.775 "/>
    <polygon style="fill: none; fill-opacity:0; stroke-width: 2; stroke: #000000" points="141.786,74.775 145.786,72.775 144.786,74.775 145.786,76.775 "/>
  </g>
  <g>
    <line style="fill: none; fill-opacity:0; stroke-width: 2; stroke: #000000" x1="163.63" y1="63.63" x2="139.622" y2="39.6225"/>
    <polygon style="fill: #000000" points="137.501,37.5012 141.744,38.9154 139.622,39.6225 138.915,41.7438 "/>
    <polygon style="fill: none; fill-opacity:0; stroke-width: 2; stroke: #000000" points="137.501,37.5012 141.744,38.9154 139.622,39.6225 138.915,41.7438 "/>
  </g>
  <g>
    <line style="fill: none; fill-opacity:0; stroke-width: 2; stroke: #000000" x1="210" y1="24.775" x2="144.786" y2="24.775"/>
    <polygon style="fill: #000000" points="141.786,24.775 145.786,22.775 144.786,24.775 145.786,26.775 "/>
    <polygon style="fill: none; fill-opacity:0; stroke-width: 2; stroke: #000000" points="141.786,24.775 145.786,22.775 144.786,24.775 145.786,26.775 "/>
  </g>
  <g>
    <line style="fill: none; fill-opacity:0; stroke-width: 2; stroke: #000000" x1="260" y1="24.775" x2="244.786" y2="24.775"/>
    <polygon style="fill: #000000" points="241.786,24.775 245.786,22.775 244.786,24.775 245.786,26.775 "/>
    <polygon style="fill: none; fill-opacity:0; stroke-width: 2; stroke: #000000" points="241.786,24.775 245.786,22.775 244.786,24.775 245.786,26.775 "/>
  </g>
  <g>
    <line style="fill: none; fill-opacity:0; stroke-width: 2; stroke: #000000" x1="313.63" y1="63.63" x2="289.622" y2="39.6225"/>
    <polygon style="fill: #000000" points="287.501,37.5012 291.744,38.9154 289.622,39.6225 288.915,41.7438 "/>
    <polygon style="fill: none; fill-opacity:0; stroke-width: 2; stroke: #000000" points="287.501,37.5012 291.744,38.9154 289.622,39.6225 288.915,41.7438 "/>
  </g>
  <g>
    <line style="fill: none; fill-opacity:0; stroke-width: 2; stroke: #000000" x1="310" y1="74.775" x2="194.786" y2="74.775"/>
    <polygon style="fill: #000000" points="191.786,74.775 195.786,72.775 194.786,74.775 195.786,76.775 "/>
    <polygon style="fill: none; fill-opacity:0; stroke-width: 2; stroke: #000000" points="191.786,74.775 195.786,72.775 194.786,74.775 195.786,76.775 "/>
  </g>
  <g>
    <line style="fill: none; fill-opacity:0; stroke-width: 2; stroke: #000000" x1="360" y1="75" x2="344.786" y2="74.8326"/>
    <polygon style="fill: #000000" points="341.786,74.7996 345.808,72.8437 344.786,74.8326 345.764,76.8435 "/>
    <polygon style="fill: none; fill-opacity:0; stroke-width: 2; stroke: #000000" points="341.786,74.7996 345.808,72.8437 344.786,74.8326 345.764,76.8435 "/>
  </g>
  <g>
    <line style="fill: none; fill-opacity:0; stroke-width: 2; stroke: #000000" x1="360" y1="25" x2="294.786" y2="24.7917"/>
    <polygon style="fill: #000000" points="291.786,24.7821 295.792,22.7949 294.786,24.7917 295.78,26.7949 "/>
    <polygon style="fill: none; fill-opacity:0; stroke-width: 2; stroke: #000000" points="291.786,24.7821 295.792,22.7949 294.786,24.7917 295.78,26.7949 "/>
  </g>
</svg>
