<?xml version="1.0" encoding="UTF-8" standalone="no"?>
<!DOCTYPE svg PUBLIC "-//W3C//DTD SVG 1.0//EN" "http://www.w3.org/TR/2001/PR-SVG-20010719/DTD/svg10.dtd">
<svg width="16cm" height="22cm" viewBox="18 19 304 433" xmlns="http://www.w3.org/2000/svg" xmlns:xlink="http://www.w3.org/1999/xlink">
  <g>
    <g>
      <ellipse style="fill: #ffffff" cx="225" cy="45" rx="25" ry="25"/>
      <ellipse style="fill: none; fill-opacity:0; stroke-width: 2; stroke: #000000" cx="225" cy="45" rx="25" ry="25"/>
      <ellipse style="fill: none; fill-opacity:0; stroke-width: 2; stroke: #000000" cx="225" cy="45" rx="25" ry="25"/>
    </g>
    <text font-size="12.7998" style="fill: #000000;text-anchor:start;font-family:sans-serif;font-style:normal;font-weight:normal" x="203.3" y="50">
      <tspan x="203.3" y="50">Commit</tspan>
    </text>
  </g>
  <g>
    <line style="fill: none; fill-opacity:0; stroke-width: 2; stroke: #000000" x1="139.602" y1="138.699" x2="77.0085" y2="169.996"/>
    <polygon style="fill: #000000" points="70.3003,173.35 77.0085,164.406 77.0085,169.996 81.4806,173.35 "/>
    <polygon style="fill: none; fill-opacity:0; stroke-width: 2; stroke: #000000" points="70.3003,173.35 77.0085,164.406 77.0085,169.996 81.4806,173.35 "/>
  </g>
  <g>
    <line style="fill: none; fill-opacity:0; stroke-width: 2; stroke: #000000" x1="166.601" y1="141.003" x2="150.173" y2="189.79"/>
    <polygon style="fill: #000000" points="147.779,196.898 146.232,185.825 150.173,189.79 155.709,189.016 "/>
    <polygon style="fill: none; fill-opacity:0; stroke-width: 2; stroke: #000000" points="147.779,196.898 146.232,185.825 150.173,189.79 155.709,189.016 "/>
  </g>
  <g>
    <line style="fill: none; fill-opacity:0; stroke-width: 2; stroke: #000000" x1="177.848" y1="141.003" x2="190.241" y2="189.583"/>
    <polygon style="fill: #000000" points="192.094,196.85 184.778,188.397 190.241,189.583 194.467,185.925 "/>
    <polygon style="fill: none; fill-opacity:0; stroke-width: 2; stroke: #000000" points="192.094,196.85 184.778,188.397 190.241,189.583 194.467,185.925 "/>
  </g>
  <g>
    <g>
      <polygon style="fill: #ffffff" points="50,140 80,200 20,200 "/>
      <polygon style="fill: none; fill-opacity:0; stroke-width: 2; stroke: #000000" points="50,140 80,200 20,200 "/>
    </g>
    <text font-size="12.7998" style="fill: #000000;text-anchor:start;font-family:sans-serif;font-style:normal;font-weight:normal" x="39.0069" y="186">
      <tspan x="39.0069" y="186">Sub</tspan>
    </text>
  </g>
  <g>
    <g>
      <rect style="fill: #ffffff" x="120" y="200" width="40" height="40"/>
      <rect style="fill: none; fill-opacity:0; stroke-width: 2; stroke: #000000" x="120" y="200" width="40" height="40"/>
    </g>
    <text font-size="12.7998" style="fill: #000000;text-anchor:start;font-family:sans-serif;font-style:normal;font-weight:normal" x="124.132" y="227">
      <tspan x="124.132" y="227">File A</tspan>
    </text>
  </g>
  <g>
    <g>
      <rect style="fill: #ffffff" x="178" y="200" width="40" height="40"/>
      <rect style="fill: none; fill-opacity:0; stroke-width: 2; stroke: #000000" x="178" y="200" width="40" height="40"/>
    </g>
    <text font-size="12.7998" style="fill: #000000;text-anchor:start;font-family:sans-serif;font-style:normal;font-weight:normal" x="183.132" y="227">
      <tspan x="183.132" y="227">File B</tspan>
    </text>
  </g>
  <g>
    <g>
      <rect style="fill: #ffffff" x="31.004" y="240" width="40" height="40"/>
      <rect style="fill: none; fill-opacity:0; stroke-width: 2; stroke: #000000" x="31.004" y="240" width="40" height="40"/>
    </g>
    <text font-size="12.7998" style="fill: #000000;text-anchor:start;font-family:sans-serif;font-style:normal;font-weight:normal" x="35.1359" y="267">
      <tspan x="35.1359" y="267">File C</tspan>
    </text>
  </g>
  <g>
    <line style="fill: none; fill-opacity:0; stroke-width: 2; stroke: #000000" x1="52.5142" y1="200.986" x2="51.7903" y2="229.272"/>
    <polygon style="fill: #000000" points="51.5985,236.77 46.8559,226.645 51.7903,229.272 56.8526,226.901 "/>
    <polygon style="fill: none; fill-opacity:0; stroke-width: 2; stroke: #000000" points="51.5985,236.77 46.8559,226.645 51.7903,229.272 56.8526,226.901 "/>
  </g>
  <g>
    <line style="fill: none; fill-opacity:0; stroke-width: 2; stroke: #000000" x1="210.445" y1="66.5529" x2="189.43" y2="97.6705"/>
    <polygon style="fill: #000000" points="185.233,103.886 186.686,92.8004 189.43,97.6705 194.973,98.397 "/>
    <polygon style="fill: none; fill-opacity:0; stroke-width: 2; stroke: #000000" points="185.233,103.886 186.686,92.8004 189.43,97.6705 194.973,98.397 "/>
  </g>
  <g>
    <g>
      <polygon style="fill: #ffffff" points="170,80 200,140 140,140 "/>
      <polygon style="fill: none; fill-opacity:0; stroke-width: 2; stroke: #000000" points="170,80 200,140 140,140 "/>
    </g>
    <text font-size="12.7998" style="fill: #000000;text-anchor:start;font-family:sans-serif;font-style:normal;font-weight:normal" x="157.007" y="126">
      <tspan x="157.007" y="126">Root</tspan>
    </text>
  </g>
  <g>
    <g>
      <ellipse style="fill: #d8e5e5" cx="205" cy="425" rx="25" ry="25"/>
      <ellipse style="fill: none; fill-opacity:0; stroke-width: 2; stroke: #000000" cx="205" cy="425" rx="25" ry="25"/>
      <ellipse style="fill: none; fill-opacity:0; stroke-width: 2; stroke: #000000" cx="205" cy="425" rx="25" ry="25"/>
    </g>
    <text font-size="12.7998" style="fill: #000000;text-anchor:start;font-family:sans-serif;font-style:normal;font-weight:normal" x="188.732" y="430">
      <tspan x="188.732" y="430">Index</tspan>
    </text>
  </g>
  <g>
    <line style="fill: none; fill-opacity:0; stroke-width: 2; stroke: #000000" x1="195.648" y1="400.744" x2="183.823" y2="370.071"/>
    <polygon style="fill: #000000" points="181.125,363.073 189.387,370.605 183.823,370.071 180.057,374.203 "/>
    <polygon style="fill: none; fill-opacity:0; stroke-width: 2; stroke: #000000" points="181.125,363.073 189.387,370.605 183.823,370.071 180.057,374.203 "/>
  </g>
  <g>
    <g>
      <polygon style="fill: #d8e5e5" points="170,300 200,360 140,360 "/>
      <polygon style="fill: none; fill-opacity:0; stroke-width: 2; stroke: #000000" points="170,300 200,360 140,360 "/>
    </g>
    <text font-size="12.7998" style="fill: #000000;text-anchor:start;font-family:sans-serif;font-style:normal;font-weight:normal" x="153.232" y="346">
      <tspan x="153.232" y="346">Root*</tspan>
    </text>
  </g>
  <g>
    <g>
      <polygon style="fill: #d8e5e5" points="290,220 320,280 260,280 "/>
      <polygon style="fill: none; fill-opacity:0; stroke-width: 2; stroke: #000000" points="290,220 320,280 260,280 "/>
    </g>
    <text font-size="12.7998" style="fill: #000000;text-anchor:start;font-family:sans-serif;font-style:normal;font-weight:normal" x="275.607" y="266">
      <tspan x="275.607" y="266">Sub*</tspan>
    </text>
  </g>
  <g>
    <g>
      <rect style="fill: #d8e5e5" x="270.087" y="140" width="40" height="40"/>
      <rect style="fill: none; fill-opacity:0; stroke-width: 2; stroke: #000000" x="270.087" y="140" width="40" height="40"/>
    </g>
    <text font-size="12.7998" style="fill: #000000;text-anchor:start;font-family:sans-serif;font-style:normal;font-weight:normal" x="270.869" y="167">
      <tspan x="270.869" y="167">File C*</tspan>
    </text>
  </g>
  <g>
    <line style="fill: none; fill-opacity:0; stroke-width: 2; stroke: #000000" x1="187.333" y1="332.444" x2="256.408" y2="286.395"/>
    <polygon style="fill: #000000" points="262.648,282.234 257.101,291.942 256.408,286.395 251.554,283.621 "/>
    <polygon style="fill: none; fill-opacity:0; stroke-width: 2; stroke: #000000" points="262.648,282.234 257.101,291.942 256.408,286.395 251.554,283.621 "/>
  </g>
  <g>
    <line style="fill: none; fill-opacity:0; stroke-width: 2; stroke: #000000" x1="291.841" y1="221.434" x2="290.964" y2="190.7"/>
    <polygon style="fill: #000000" points="290.75,183.203 296.033,193.056 290.964,190.7 286.037,193.342 "/>
    <polygon style="fill: none; fill-opacity:0; stroke-width: 2; stroke: #000000" points="290.75,183.203 296.033,193.056 290.964,190.7 286.037,193.342 "/>
  </g>
  <g>
    <line style="fill: none; fill-opacity:0; stroke-width: 2; stroke: #000000" x1="164.182" y1="309.4" x2="148.224" y2="250.404"/>
    <polygon style="fill: #000000" points="146.266,243.164 153.703,251.512 148.224,250.404 144.05,254.123 "/>
    <polygon style="fill: none; fill-opacity:0; stroke-width: 2; stroke: #000000" points="146.266,243.164 153.703,251.512 148.224,250.404 144.05,254.123 "/>
  </g>
  <g>
    <line style="fill: none; fill-opacity:0; stroke-width: 2; stroke: #000000" x1="178.557" y1="314.881" x2="191.741" y2="250.544"/>
    <polygon style="fill: #000000" points="193.247,243.197 196.137,253.997 191.741,250.544 186.341,251.989 "/>
    <polygon style="fill: none; fill-opacity:0; stroke-width: 2; stroke: #000000" points="193.247,243.197 196.137,253.997 191.741,250.544 186.341,251.989 "/>
  </g>
</svg>
