<?xml version="1.0" encoding="UTF-8" standalone="no"?>
<!DOCTYPE svg PUBLIC "-//W3C//DTD SVG 1.0//EN" "http://www.w3.org/TR/2001/PR-SVG-20010719/DTD/svg10.dtd">
<svg width="15cm" height="21cm" viewBox="19 12 281 419" xmlns="http://www.w3.org/2000/svg" xmlns:xlink="http://www.w3.org/1999/xlink">
  <g>
    <rect style="fill: #ffffff" x="40.2941" y="57.7206" width="50.5" height="44.5588"/>
    <ellipse style="fill: #ffffff" cx="65.5441" cy="102.279" rx="25.25" ry="7.42647"/>
    <ellipse style="fill: #ffffff" cx="65.5441" cy="57.7206" rx="25.25" ry="7.42647"/>
    <ellipse style="fill: none; fill-opacity:0; stroke-width: 2; stroke: #000000" cx="65.5441" cy="57.7206" rx="25.25" ry="7.42647"/>
    <path style="fill: none; fill-opacity:0; stroke-width: 2; stroke: #000000" d="M 90.7941 57.7206 L 90.7941,102.279 C 90.7941,106.381 79.4893,109.706 65.5441,109.706 C 51.5989,109.706 40.2941,106.381 40.2941,102.279 L 40.2941,57.7206"/>
    <text font-size="12.7998" style="fill: #000000;text-anchor:middle;font-family:sans-serif;font-style:normal;font-weight:normal" x="65.5441" y="122.706">
      <tspan x="65.5441" y="122.706">Project</tspan>
    </text>
  </g>
  <g>
    <rect style="fill: #ffffff" x="190.294" y="57.7206" width="50.5" height="44.5588"/>
    <ellipse style="fill: #ffffff" cx="215.544" cy="102.279" rx="25.25" ry="7.42647"/>
    <ellipse style="fill: #ffffff" cx="215.544" cy="57.7206" rx="25.25" ry="7.42647"/>
    <ellipse style="fill: none; fill-opacity:0; stroke-width: 2; stroke: #000000" cx="215.544" cy="57.7206" rx="25.25" ry="7.42647"/>
    <path style="fill: none; fill-opacity:0; stroke-width: 2; stroke: #000000" d="M 240.794 57.7206 L 240.794,102.279 C 240.794,106.381 229.489,109.706 215.544,109.706 C 201.599,109.706 190.294,106.381 190.294,102.279 L 190.294,57.7206"/>
    <text font-size="12.7998" style="fill: #000000;text-anchor:middle;font-family:sans-serif;font-style:normal;font-weight:normal" x="215.544" y="122.706">
      <tspan x="215.544" y="122.706">ProjectFork</tspan>
    </text>
  </g>
  <g>
    <rect style="fill: #ffffff" x="190.294" y="267.721" width="50.5" height="44.5588"/>
    <ellipse style="fill: #ffffff" cx="215.544" cy="312.279" rx="25.25" ry="7.42647"/>
    <ellipse style="fill: #ffffff" cx="215.544" cy="267.721" rx="25.25" ry="7.42647"/>
    <ellipse style="fill: none; fill-opacity:0; stroke-width: 2; stroke: #000000" cx="215.544" cy="267.721" rx="25.25" ry="7.42647"/>
    <path style="fill: none; fill-opacity:0; stroke-width: 2; stroke: #000000" d="M 240.794 267.721 L 240.794,312.279 C 240.794,316.381 229.489,319.706 215.544,319.706 C 201.599,319.706 190.294,316.381 190.294,312.279 L 190.294,267.721"/>
    <text font-size="12.7998" style="fill: #000000;text-anchor:middle;font-family:sans-serif;font-style:normal;font-weight:normal" x="215.544" y="332.706">
      <tspan x="215.544" y="332.706">Local</tspan>
    </text>
  </g>
  <g>
    <path style="fill: none; fill-opacity:0; stroke-width: 2; stroke: #0000ff" d="M 81.6623 51.4358 C 101.956,1.7299 172.813,1.04375 199.833,46.2551"/>
    <polygon style="fill: #0000ff" points="201.372,48.8302 197.603,46.4227 199.833,46.2551 201.037,44.3707 "/>
    <polygon style="fill: none; fill-opacity:0; stroke-width: 2; stroke: #0000ff" points="201.372,48.8302 197.603,46.4227 199.833,46.2551 201.037,44.3707 "/>
  </g>
  <text font-size="12.7998" style="fill: #000000;text-anchor:start;font-family:sans-serif;font-style:normal;font-weight:normal" x="130.294" y="0.294118">
    <tspan x="130.294" y="0.294118"></tspan>
  </text>
  <g>
    <path style="fill: none; fill-opacity:0; stroke-width: 2; stroke: #0000ff" d="M 241.797 101.797 C 282.091,142.091 282.077,228.829 245.513,264.86"/>
    <polygon style="fill: #0000ff" points="243.376,266.965 244.821,262.733 245.513,264.86 247.629,265.582 "/>
    <polygon style="fill: none; fill-opacity:0; stroke-width: 2; stroke: #0000ff" points="243.376,266.965 244.821,262.733 245.513,264.86 247.629,265.582 "/>
  </g>
  <text font-size="12.7998" style="fill: #000000;text-anchor:start;font-family:sans-serif;font-style:normal;font-weight:normal" x="30.2941" y="130.294">
    <tspan x="30.2941" y="130.294"></tspan>
  </text>
  <g>
    <g>
      <rect style="fill: #ffffff" x="40.2941" y="140.294" width="50" height="20"/>
      <rect style="fill: none; fill-opacity:0; stroke-width: 2; stroke: #000000" x="40.2941" y="140.294" width="50" height="20"/>
    </g>
    <text font-size="12.7998" style="fill: #000000;text-anchor:start;font-family:sans-serif;font-style:normal;font-weight:normal" x="45.8941" y="155.176">
      <tspan x="45.8941" y="155.176">master</tspan>
    </text>
  </g>
  <g>
    <g>
      <rect style="fill: #ffffff" x="40.2941" y="170.294" width="50" height="20"/>
      <rect style="fill: none; fill-opacity:0; stroke-width: 2; stroke: #000000" x="40.2941" y="170.294" width="50" height="20"/>
    </g>
    <text font-size="12.7998" style="fill: #000000;text-anchor:start;font-family:sans-serif;font-style:normal;font-weight:normal" x="45.1191" y="185.176">
      <tspan x="45.1191" y="185.176">feature</tspan>
    </text>
  </g>
  <g>
    <g>
      <rect style="fill: #ffffff" x="190.294" y="350.294" width="50" height="20"/>
      <rect style="fill: none; fill-opacity:0; stroke-width: 2; stroke: #000000" x="190.294" y="350.294" width="50" height="20"/>
    </g>
    <text font-size="12.7998" style="fill: #000000;text-anchor:start;font-family:sans-serif;font-style:normal;font-weight:normal" x="195.894" y="365.176">
      <tspan x="195.894" y="365.176">master</tspan>
    </text>
  </g>
  <g>
    <g>
      <rect style="fill: #ffffff" x="190.294" y="380.294" width="50" height="20"/>
      <rect style="fill: none; fill-opacity:0; stroke-width: 2; stroke: #000000" x="190.294" y="380.294" width="50" height="20"/>
    </g>
    <text font-size="12.7998" style="fill: #000000;text-anchor:start;font-family:sans-serif;font-style:normal;font-weight:normal" x="195.119" y="395.176">
      <tspan x="195.119" y="395.176">feature</tspan>
    </text>
  </g>
  <g>
    <g>
      <rect style="fill: #ffffff" x="190.294" y="410.294" width="50" height="20"/>
      <rect style="fill: none; fill-opacity:0; stroke-width: 2; stroke: #000000" x="190.294" y="410.294" width="50" height="20"/>
    </g>
    <text font-size="12.7998" style="fill: #000000;text-anchor:start;font-family:sans-serif;font-style:normal;font-weight:normal" x="201.494" y="425.176">
      <tspan x="201.494" y="425.176">mine</tspan>
    </text>
  </g>
  <g>
    <polyline style="fill: none; fill-opacity:0; stroke-width: 2; stroke: #000000" points="240.294,290.294 240.294,290.294 260.294,290.294 260.294,360.294 245.53,360.294 "/>
    <polygon style="fill: #000000" points="242.53,360.294 246.53,358.294 245.53,360.294 246.53,362.294 "/>
    <polygon style="fill: none; fill-opacity:0; stroke-width: 2; stroke: #000000" points="242.53,360.294 246.53,358.294 245.53,360.294 246.53,362.294 "/>
  </g>
  <g>
    <polyline style="fill: none; fill-opacity:0; stroke-width: 2; stroke: #000000" points="240.294,290.294 240.294,290.294 260.294,290.294 260.294,390.294 245.53,390.294 "/>
    <polygon style="fill: #000000" points="242.53,390.294 246.53,388.294 245.53,390.294 246.53,392.294 "/>
    <polygon style="fill: none; fill-opacity:0; stroke-width: 2; stroke: #000000" points="242.53,390.294 246.53,388.294 245.53,390.294 246.53,392.294 "/>
  </g>
  <g>
    <polyline style="fill: none; fill-opacity:0; stroke-width: 2; stroke: #000000" points="240.294,290.294 240.294,290.294 260.294,290.294 260.294,420.294 245.53,420.294 "/>
    <polygon style="fill: #000000" points="242.53,420.294 246.53,418.294 245.53,420.294 246.53,422.294 "/>
    <polygon style="fill: none; fill-opacity:0; stroke-width: 2; stroke: #000000" points="242.53,420.294 246.53,418.294 245.53,420.294 246.53,422.294 "/>
  </g>
  <g>
    <g>
      <rect style="fill: #ffffff" x="190.294" y="140.294" width="50" height="20"/>
      <rect style="fill: none; fill-opacity:0; stroke-width: 2; stroke: #000000" x="190.294" y="140.294" width="50" height="20"/>
    </g>
    <text font-size="12.7998" style="fill: #000000;text-anchor:start;font-family:sans-serif;font-style:normal;font-weight:normal" x="195.894" y="155.176">
      <tspan x="195.894" y="155.176">master</tspan>
    </text>
  </g>
  <g>
    <g>
      <rect style="fill: #ffffff" x="190.294" y="170.294" width="50" height="20"/>
      <rect style="fill: none; fill-opacity:0; stroke-width: 2; stroke: #000000" x="190.294" y="170.294" width="50" height="20"/>
    </g>
    <text font-size="12.7998" style="fill: #000000;text-anchor:start;font-family:sans-serif;font-style:normal;font-weight:normal" x="195.119" y="185.176">
      <tspan x="195.119" y="185.176">feature</tspan>
    </text>
  </g>
  <g>
    <polyline style="fill: none; fill-opacity:0; stroke-width: 2; stroke: #000000" points="40.2941,80.2941 40.2941,80.2941 20.2941,80.2941 20.2941,150.294 35.058,150.294 "/>
    <polygon style="fill: #000000" points="38.058,150.294 34.058,152.294 35.058,150.294 34.058,148.294 "/>
    <polygon style="fill: none; fill-opacity:0; stroke-width: 2; stroke: #000000" points="38.058,150.294 34.058,152.294 35.058,150.294 34.058,148.294 "/>
  </g>
  <g>
    <polyline style="fill: none; fill-opacity:0; stroke-width: 2; stroke: #000000" points="40.2941,80.2941 40.2941,80.2941 20.2941,80.2941 20.2941,180.294 35.058,180.294 "/>
    <polygon style="fill: #000000" points="38.058,180.294 34.058,182.294 35.058,180.294 34.058,178.294 "/>
    <polygon style="fill: none; fill-opacity:0; stroke-width: 2; stroke: #000000" points="38.058,180.294 34.058,182.294 35.058,180.294 34.058,178.294 "/>
  </g>
  <g>
    <polyline style="fill: none; fill-opacity:0; stroke-width: 2; stroke: #000000" points="240.294,80.2941 240.294,80.2941 260.294,80.2941 260.294,150.294 245.53,150.294 "/>
    <polygon style="fill: #000000" points="242.53,150.294 246.53,148.294 245.53,150.294 246.53,152.294 "/>
    <polygon style="fill: none; fill-opacity:0; stroke-width: 2; stroke: #000000" points="242.53,150.294 246.53,148.294 245.53,150.294 246.53,152.294 "/>
  </g>
  <g>
    <polyline style="fill: none; fill-opacity:0; stroke-width: 2; stroke: #000000" points="241.76,80 260.294,80 260.294,180.294 245.53,180.294 "/>
    <polygon style="fill: #000000" points="242.53,180.294 246.53,178.294 245.53,180.294 246.53,182.294 "/>
    <polygon style="fill: none; fill-opacity:0; stroke-width: 2; stroke: #000000" points="242.53,180.294 246.53,178.294 245.53,180.294 246.53,182.294 "/>
  </g>
  <g>
    <path style="fill: none; fill-opacity:0; stroke-width: 2; stroke: #ff0000" d="M 181.654,130.638 A 135.755,135.755 0 0 0 194.844,262.864"/>
    <polygon style="fill: #ff0000" points="182.868,127.896 182.926,132.368 181.562,130.597 179.326,130.626 "/>
    <polygon style="fill: none; fill-opacity:0; stroke-width: 2; stroke: #ff0000" points="182.868,127.896 182.926,132.368 181.562,130.597 179.326,130.626 "/>
  </g>
  <g>
    <path style="fill: none; fill-opacity:0; stroke-width: 2; stroke: #ff0000" d="M 87.3462,121.203 A 487.993,487.993 0 0 0 191.293,264.713"/>
    <polygon style="fill: #ff0000" points="86.0605,118.493 89.5559,121.283 87.3209,121.215 85.926,122.963 "/>
    <polygon style="fill: none; fill-opacity:0; stroke-width: 2; stroke: #ff0000" points="86.0605,118.493 89.5559,121.283 87.3209,121.215 85.926,122.963 "/>
  </g>
  <g>
    <path style="fill: none; fill-opacity:0; stroke-width: 2; stroke-dasharray: 4; stroke: #00ff00" d="M 189.293 350.839 C 134.293,330.839 140.455,191.291 90.0521,163.798"/>
    <polygon style="fill: #00ff00" points="87.4184,162.362 91.8877,162.522 90.0521,163.798 89.9723,166.033 "/>
    <polygon style="fill: none; fill-opacity:0; stroke-width: 2; stroke: #00ff00" points="87.4184,162.362 91.8877,162.522 90.0521,163.798 89.9723,166.033 "/>
  </g>
  <g>
    <path style="fill: none; fill-opacity:0; stroke-width: 2; stroke-dasharray: 4; stroke: #00ff00" d="M 189.287 386.293 C 124.287,376.293 71.607,230.797 67.2565,195.993"/>
    <polygon style="fill: #00ff00" points="66.8844,193.016 69.3651,196.737 67.2565,195.993 65.3959,197.233 "/>
    <polygon style="fill: none; fill-opacity:0; stroke-width: 2; stroke: #00ff00" points="66.8844,193.016 69.3651,196.737 67.2565,195.993 65.3959,197.233 "/>
  </g>
  <g>
    <path style="fill: none; fill-opacity:0; stroke-width: 2; stroke-dasharray: 4; stroke: #00ff00" d="M 228.851 345.425 C 380.323,179.294 240.294,160.294 240.294,160.294"/>
    <polygon style="fill: #00ff00" points="226.83,347.642 228.047,343.339 228.851,345.425 231.003,346.034 "/>
    <polygon style="fill: none; fill-opacity:0; stroke-width: 2; stroke: #00ff00" points="226.83,347.642 228.047,343.339 228.851,345.425 231.003,346.034 "/>
    <polygon style="fill: #00ff00" points="240.294,160.294 236.294,162.294 237.294,160.294 236.294,158.294 "/>
    <polygon style="fill: none; fill-opacity:0; stroke-width: 2; stroke: #00ff00" points="240.294,160.294 236.294,162.294 237.294,160.294 236.294,158.294 "/>
  </g>
  <g>
    <path style="fill: none; fill-opacity:0; stroke-width: 2; stroke-dasharray: 4; stroke: #00ff00" d="M 238.362 376.624 C 368.857,299.294 240.294,190.294 240.294,190.294"/>
    <polygon style="fill: #00ff00" points="235.781,378.154 238.203,374.394 238.362,376.624 240.242,377.835 "/>
    <polygon style="fill: none; fill-opacity:0; stroke-width: 2; stroke: #00ff00" points="235.781,378.154 238.203,374.394 238.362,376.624 240.242,377.835 "/>
    <polygon style="fill: #00ff00" points="240.294,190.294 236.294,192.294 237.294,190.294 236.294,188.294 "/>
    <polygon style="fill: none; fill-opacity:0; stroke-width: 2; stroke: #00ff00" points="240.294,190.294 236.294,192.294 237.294,190.294 236.294,188.294 "/>
  </g>
</svg>
