<?xml version="1.0" encoding="UTF-8" standalone="no"?>
<!DOCTYPE svg PUBLIC "-//W3C//DTD SVG 1.0//EN" "http://www.w3.org/TR/2001/PR-SVG-20010719/DTD/svg10.dtd">
<svg width="13cm" height="11cm" viewBox="-2 -2 247 211" xmlns="http://www.w3.org/2000/svg" xmlns:xlink="http://www.w3.org/1999/xlink">
  <g>
    <rect style="fill: #ffffff" x="0" y="6.47059" width="44" height="38.8235"/>
    <ellipse style="fill: #ffffff" cx="22" cy="45.2941" rx="22" ry="6.47059"/>
    <ellipse style="fill: #ffffff" cx="22" cy="6.47059" rx="22" ry="6.47059"/>
    <ellipse style="fill: none; fill-opacity:0; stroke-width: 2; stroke: #000000" cx="22" cy="6.47059" rx="22" ry="6.47059"/>
    <path style="fill: none; fill-opacity:0; stroke-width: 2; stroke: #000000" d="M 44 6.47059 L 44,45.2941 C 44,48.8677 34.1503,51.7647 22,51.7647 C 9.84974,51.7647 0,48.8677 0,45.2941 L 0,6.47059"/>
    <text font-size="12.8" style="fill: #000000;text-anchor:middle;font-family:sans-serif;font-style:normal;font-weight:normal" x="22" y="64.5647">
      <tspan x="22" y="64.5647">Adam</tspan>
    </text>
  </g>
  <g>
    <rect style="fill: #ffffff" x="200" y="6.47059" width="44" height="38.8235"/>
    <ellipse style="fill: #ffffff" cx="222" cy="45.2941" rx="22" ry="6.47059"/>
    <ellipse style="fill: #ffffff" cx="222" cy="6.47059" rx="22" ry="6.47059"/>
    <ellipse style="fill: none; fill-opacity:0; stroke-width: 2; stroke: #000000" cx="222" cy="6.47059" rx="22" ry="6.47059"/>
    <path style="fill: none; fill-opacity:0; stroke-width: 2; stroke: #000000" d="M 244 6.47059 L 244,45.2941 C 244,48.8677 234.15,51.7647 222,51.7647 C 209.85,51.7647 200,48.8677 200,45.2941 L 200,6.47059"/>
    <text font-size="12.8" style="fill: #000000;text-anchor:middle;font-family:sans-serif;font-style:normal;font-weight:normal" x="222" y="64.5647">
      <tspan x="222" y="64.5647">Bob</tspan>
    </text>
  </g>
  <g>
    <rect style="fill: #ffffff" x="100" y="146.471" width="44" height="38.8235"/>
    <ellipse style="fill: #ffffff" cx="122" cy="185.294" rx="22" ry="6.47059"/>
    <ellipse style="fill: #ffffff" cx="122" cy="146.471" rx="22" ry="6.47059"/>
    <ellipse style="fill: none; fill-opacity:0; stroke-width: 2; stroke: #000000" cx="122" cy="146.471" rx="22" ry="6.47059"/>
    <path style="fill: none; fill-opacity:0; stroke-width: 2; stroke: #000000" d="M 144 146.471 L 144,185.294 C 144,188.868 134.15,191.765 122,191.765 C 109.85,191.765 100,188.868 100,185.294 L 100,146.471"/>
    <text font-size="12.8" style="fill: #000000;text-anchor:middle;font-family:sans-serif;font-style:normal;font-weight:normal" x="122" y="204.565">
      <tspan x="122" y="204.565">Carl</tspan>
    </text>
  </g>
  <g>
    <path style="fill: #ffffff" d="M 59.0598 87.5081 C 54.4119,87.358 45.3978,90.5094 46.6654,97.2625 C 47.933,104.016 53.9894,105.516 56.5246,103.565 C 59.0598,101.614 52.5809,113.02 64.9753,116.021 C 77.3696,119.022 83.7076,114.22 81.8766,110.769 C 80.0456,107.317 92.7217,118.872 98.6372,112.269 C 104.553,105.666 92.5809,99.3635 95.1161,100.264 C 97.6513,101.164 105.398,99.9637 102.863,88.7086 C 100.327,77.4535 77.5104,86.1575 80.0456,84.5067 C 82.5809,82.856 76.2428,74.6022 68.3556,76.253 C 60.4682,77.9037 59.9088,80.8992 59.0637,87.5022 L 59.0598,87.5081z"/>
    <path style="fill: none; fill-opacity:0; stroke-width: 2; stroke: #000000" d="M 59.0598 87.5081 C 54.4119,87.358 45.3978,90.5094 46.6654,97.2625 C 47.933,104.016 53.9894,105.516 56.5246,103.565 C 59.0598,101.614 52.5809,113.02 64.9753,116.021 C 77.3696,119.022 83.7076,114.22 81.8766,110.769 C 80.0456,107.317 92.7217,118.872 98.6372,112.269 C 104.553,105.666 92.5809,99.3635 95.1161,100.264 C 97.6513,101.164 105.398,99.9637 102.863,88.7086 C 100.327,77.4535 77.5104,86.1575 80.0456,84.5067 C 82.5809,82.856 76.2428,74.6022 68.3556,76.253 C 60.4682,77.9037 59.9088,80.8992 59.0637,87.5022 L 59.0598,87.5081"/>
    <text font-size="12.8" style="fill: #000000;text-anchor:middle;font-family:sans-serif;font-style:normal;font-weight:normal" x="77.0062" y="102.395">
      <tspan x="77.0062" y="102.395"></tspan>
    </text>
  </g>
  <g>
    <path style="fill: #ffffff" d="M 159.782 89.8215 C 155.134,89.6714 146.12,92.8228 147.388,99.5759 C 148.655,106.329 154.712,107.83 157.247,105.879 C 159.782,103.928 153.303,115.333 165.698,118.334 C 178.092,121.336 184.43,116.534 182.599,113.082 C 180.768,109.63 193.444,121.186 199.36,114.583 C 205.275,107.98 193.303,101.677 195.838,102.577 C 198.374,103.478 206.12,102.277 203.585,91.022 C 201.05,79.7669 178.233,88.4709 180.768,86.8201 C 183.303,85.1694 176.965,76.9156 169.078,78.5664 C 161.191,80.2171 160.631,83.2126 159.786,89.8156 L 159.782,89.8215z"/>
    <path style="fill: none; fill-opacity:0; stroke-width: 2; stroke: #000000" d="M 159.782 89.8215 C 155.134,89.6714 146.12,92.8228 147.388,99.5759 C 148.655,106.329 154.712,107.83 157.247,105.879 C 159.782,103.928 153.303,115.333 165.698,118.334 C 178.092,121.336 184.43,116.534 182.599,113.082 C 180.768,109.63 193.444,121.186 199.36,114.583 C 205.275,107.98 193.303,101.677 195.838,102.577 C 198.374,103.478 206.12,102.277 203.585,91.022 C 201.05,79.7669 178.233,88.4709 180.768,86.8201 C 183.303,85.1694 176.965,76.9156 169.078,78.5664 C 161.191,80.2171 160.631,83.2126 159.786,89.8156 L 159.782,89.8215"/>
    <text font-size="12.8" style="fill: #000000;text-anchor:middle;font-family:sans-serif;font-style:normal;font-weight:normal" x="177.729" y="104.709">
      <tspan x="177.729" y="104.709"></tspan>
    </text>
  </g>
  <g>
    <path style="fill: #ffffff" d="M 102.915 18.3036 C 98.2673,18.1536 89.2532,21.305 90.5208,28.0581 C 91.7884,34.8111 97.8448,36.3117 100.38,34.3609 C 102.915,32.41 96.4363,43.8152 108.831,46.8165 C 121.225,49.8179 127.563,45.0157 125.732,41.5641 C 123.901,38.1126 136.577,49.6678 142.493,43.0648 C 148.408,36.4618 136.436,30.159 138.971,31.0594 C 141.507,31.9598 149.253,30.7593 146.718,19.5042 C 144.183,8.24905 121.366,16.953 123.901,15.3023 C 126.436,13.6515 120.098,5.39774 112.211,7.04849 C 104.324,8.69926 103.764,11.6948 102.919,18.2978 L 102.915,18.3036z"/>
    <path style="fill: none; fill-opacity:0; stroke-width: 2; stroke: #000000" d="M 102.915 18.3036 C 98.2673,18.1536 89.2532,21.305 90.5208,28.0581 C 91.7884,34.8111 97.8448,36.3117 100.38,34.3609 C 102.915,32.41 96.4363,43.8152 108.831,46.8165 C 121.225,49.8179 127.563,45.0157 125.732,41.5641 C 123.901,38.1126 136.577,49.6678 142.493,43.0648 C 148.408,36.4618 136.436,30.159 138.971,31.0594 C 141.507,31.9598 149.253,30.7593 146.718,19.5042 C 144.183,8.24905 121.366,16.953 123.901,15.3023 C 126.436,13.6515 120.098,5.39774 112.211,7.04849 C 104.324,8.69926 103.764,11.6948 102.919,18.2978 L 102.915,18.3036"/>
    <text font-size="12.8" style="fill: #000000;text-anchor:middle;font-family:sans-serif;font-style:normal;font-weight:normal" x="120.862" y="33.1908">
      <tspan x="120.862" y="33.1908"></tspan>
    </text>
  </g>
  <g>
    <line style="fill: none; fill-opacity:0; stroke-width: 2; stroke: #000000" x1="48.0025" y1="56.8506" x2="102.371" y2="132.966"/>
    <polygon style="fill: #000000" points="43.6432,50.7476 53.5243,55.9787 48.0025,56.8506 45.3869,61.7911 "/>
    <polygon style="fill: none; fill-opacity:0; stroke-width: 2; stroke: #000000" points="43.6432,50.7476 53.5243,55.9787 48.0025,56.8506 45.3869,61.7911 "/>
    <polygon style="fill: #000000" points="106.73,139.069 96.8488,133.838 102.371,132.966 104.986,128.025 "/>
    <polygon style="fill: none; fill-opacity:0; stroke-width: 2; stroke: #000000" points="106.73,139.069 96.8488,133.838 102.371,132.966 104.986,128.025 "/>
  </g>
  <g>
    <line style="fill: none; fill-opacity:0; stroke-width: 2; stroke: #000000" x1="202.133" y1="59.1321" x2="147.777" y2="135.23"/>
    <polygon style="fill: #000000" points="206.492,53.0291 204.748,64.0726 202.133,59.1321 196.611,58.2602 "/>
    <polygon style="fill: none; fill-opacity:0; stroke-width: 2; stroke: #000000" points="206.492,53.0291 204.748,64.0726 202.133,59.1321 196.611,58.2602 "/>
    <polygon style="fill: #000000" points="143.417,141.333 145.161,130.29 147.777,135.23 153.298,136.102 "/>
    <polygon style="fill: none; fill-opacity:0; stroke-width: 2; stroke: #000000" points="143.417,141.333 145.161,130.29 147.777,135.23 153.298,136.102 "/>
  </g>
  <g>
    <line style="fill: none; fill-opacity:0; stroke-width: 2; stroke: #000000" x1="54.7407" y1="25.8824" x2="189.26" y2="25.8824"/>
    <polygon style="fill: #000000" points="47.2407,25.8824 57.2407,20.8824 54.7407,25.8824 57.2407,30.8824 "/>
    <polygon style="fill: none; fill-opacity:0; stroke-width: 2; stroke: #000000" points="47.2407,25.8824 57.2407,20.8824 54.7407,25.8824 57.2407,30.8824 "/>
    <polygon style="fill: #000000" points="196.76,25.8824 186.76,30.8824 189.26,25.8824 186.76,20.8824 "/>
    <polygon style="fill: none; fill-opacity:0; stroke-width: 2; stroke: #000000" points="196.76,25.8824 186.76,30.8824 189.26,25.8824 186.76,20.8824 "/>
  </g>
</svg>
